<?xml version="1.0" encoding="UTF-8"?>
<svg version="1.1" xmlns="http://www.w3.org/2000/svg" width="98" height="96">
<path d="M0 0 C1.60608717 1.22062625 3.19058913 2.47028042 4.75 3.75 C5.46027344 4.32363281 6.17054687 4.89726562 6.90234375 5.48828125 C15.74953042 13.41848504 21.28096598 25.62876278 21.9609375 37.40234375 C22.46992488 52.73787719 18.70539278 66.23723093 8.0703125 77.640625 C1.56839385 83.55146014 -6.28448426 89.15752344 -15.25 88.75 C-16.3836822 86.4826356 -16.4160797 85.09452667 -16.49609375 82.57421875 C-16.52896484 81.74599609 -16.56183594 80.91777344 -16.59570312 80.06445312 C-16.6564874 78.32498833 -16.71382715 76.58539946 -16.76757812 74.84570312 C-16.94952033 70.41386555 -17.19566269 66.78382022 -19.25 62.75 C-18.52554688 62.57984375 -17.80109375 62.4096875 -17.0546875 62.234375 C-9.99141131 60.4638471 -3.89672935 58.90161268 0.125 52.375 C2.73586442 46.56336874 2.55065674 39.96771267 1.75 33.75 C0.75835937 31.7458421 -0.24169271 29.74582474 -1.25 27.75 C-1.76171875 24.3203125 -1.76171875 24.3203125 -1.9375 20.875 C-2.00324219 19.72257812 -2.06898437 18.57015625 -2.13671875 17.3828125 C-2.19279297 16.07957031 -2.19279297 16.07957031 -2.25 14.75 C-7.15789317 15.16249436 -7.15789317 15.16249436 -11.47265625 17.31640625 C-15.23280116 19.2572968 -18.42922764 18.80206664 -22.5 18.375 C-27.2367854 17.9629525 -31.59877285 17.58721297 -36.3125 18.4375 C-40.76145379 18.79059157 -42.62407673 18.02139755 -46.328125 15.7578125 C-48.60156566 14.5656424 -50.7275878 14.15880474 -53.25 13.75 C-53.19779297 15.17892578 -53.19779297 15.17892578 -53.14453125 16.63671875 C-53.11746094 17.89097656 -53.09039062 19.14523438 -53.0625 20.4375 C-53.01029297 22.29955078 -53.01029297 22.29955078 -52.95703125 24.19921875 C-53.26813243 27.96976511 -54.09412839 29.70868112 -56.25 32.75 C-58.74293253 39.54890691 -57.07848238 46.37136484 -54.25 52.75 C-51.17957505 58.17441741 -48.38269816 59.27237039 -42.4375 61.125 C-40.38035522 61.68666217 -38.3193062 62.23494575 -36.25 62.75 C-38 69.5 -38 69.5 -40.25 71.75 C-43.30566049 72.32030992 -46.1897172 72.27690087 -49.25 71.75 C-52 69.5 -52 69.5 -54.25 66.75 C-55.89864545 65.39444707 -57.56003995 64.05368347 -59.25 62.75 C-59.58 63.08 -59.91 63.41 -60.25 63.75 C-59.38375 64.801875 -59.38375 64.801875 -58.5 65.875 C-56.25 68.75 -56.25 68.75 -54.5 71.9375 C-51.86361814 75.23297732 -50.33961231 75.71393548 -46.34765625 76.5234375 C-43.99425294 76.77762259 -41.61709045 76.75 -39.25 76.75 C-39.25 80.71 -39.25 84.67 -39.25 88.75 C-49.05837856 88.58920691 -55.9817425 84.01807154 -63.0625 77.4375 C-74.03649061 65.70033018 -76.75313793 52.28275718 -76.52734375 36.82421875 C-76.15053509 26.66163282 -72.36620543 18.71493251 -66.25 10.75 C-65.81042969 10.13511719 -65.37085937 9.52023438 -64.91796875 8.88671875 C-50.06084378 -10.42326212 -19.53935305 -12.89833427 0 0 Z " fill="#9CA3AF" transform="translate(76.25,7.25)"/>
</svg>
